<svg width="94" height="109" viewBox="0 0 94 109" fill="none" xmlns="http://www.w3.org/2000/svg">
<path d="M91.8883 31.7958L69.4442 9.35168V24.3144C69.4442 28.4292 72.8108 31.7958 76.9255 31.7958H91.8883Z" fill="#FBBD02"/>
<path d="M70.7534 0.561104C70.5664 0.374069 70.3793 0.374069 70.1923 0.187035H70.0053C69.8182 0.187035 69.6312 0.187035 69.4442 0C69.4442 0 69.4442 0 69.2571 0H9.59312C4.35615 0 0.241394 4.11476 0.241394 9.35173V99.1283C0.241394 104.365 4.35615 108.48 9.59312 108.48H84.4069C89.6439 108.48 93.7586 104.365 93.7586 99.1283V24.3145C93.7586 24.3145 93.7586 24.3145 93.7586 24.1274C93.7586 23.9404 93.7586 23.7534 93.5716 23.5663V23.3793C93.5716 23.1923 93.3846 23.0052 93.1975 22.8182L70.7534 0.561104ZM84.4069 104.739H9.59312C6.41353 104.739 3.98208 102.308 3.98208 99.1283V9.35173C3.98208 6.17214 6.41353 3.74069 9.59312 3.74069H67.5738V16.8331C67.5738 22.0701 71.6886 26.1848 76.9255 26.1848H90.0179V99.1283C90.0179 102.308 87.5865 104.739 84.4069 104.739ZM76.9255 22.4441C73.7459 22.4441 71.3145 20.0127 71.3145 16.8331V6.35917L87.3995 22.4441H76.9255Z" fill="#2C2C2C"/>
<path d="M39.5185 18.7035H54.4813C55.6035 18.7035 56.3516 17.9553 56.3516 16.8331C56.3516 15.7109 55.6035 14.9628 54.4813 14.9628H39.5185C38.3963 14.9628 37.6482 15.7109 37.6482 16.8331C37.6482 17.9553 38.3963 18.7035 39.5185 18.7035Z" fill="#2C2C2C"/>
<path d="M17.0746 33.6662H39.5187C40.6409 33.6662 41.3891 32.9181 41.3891 31.7959C41.3891 30.6737 40.6409 29.9255 39.5187 29.9255H17.0746C15.9524 29.9255 15.2042 30.6737 15.2042 31.7959C15.2042 32.9181 15.9524 33.6662 17.0746 33.6662Z" fill="#2C2C2C"/>
<path d="M17.0746 48.629H61.9628C63.0851 48.629 63.8332 47.8809 63.8332 46.7586C63.8332 45.6364 63.0851 44.8883 61.9628 44.8883H17.0746C15.9524 44.8883 15.2042 45.6364 15.2042 46.7586C15.2042 47.8809 15.9524 48.629 17.0746 48.629Z" fill="#2C2C2C"/>
<path d="M76.9255 44.8883H69.4441C68.3219 44.8883 67.5737 45.6364 67.5737 46.7586C67.5737 47.8809 68.3219 48.629 69.4441 48.629H76.9255C78.0477 48.629 78.7958 47.8809 78.7958 46.7586C78.7958 45.6364 78.0477 44.8883 76.9255 44.8883Z" fill="#2C2C2C"/>
<path d="M17.0746 63.5917H54.4815C55.6037 63.5917 56.3518 62.8436 56.3518 61.7214C56.3518 60.5992 55.6037 59.851 54.4815 59.851H17.0746C15.9524 59.851 15.2042 60.5992 15.2042 61.7214C15.2042 62.8436 15.9524 63.5917 17.0746 63.5917Z" fill="#2C2C2C"/>
<path d="M76.9255 59.851H61.9627C60.8405 59.851 60.0923 60.5992 60.0923 61.7214C60.0923 62.8436 60.8405 63.5917 61.9627 63.5917H76.9255C78.0477 63.5917 78.7958 62.8436 78.7958 61.7214C78.7958 60.5992 78.0477 59.851 76.9255 59.851Z" fill="#2C2C2C"/>
<path d="M76.9256 74.8138H17.0746C15.9524 74.8138 15.2042 75.5619 15.2042 76.6841C15.2042 77.8063 15.9524 78.5545 17.0746 78.5545H76.9256C78.0478 78.5545 78.7959 77.8063 78.7959 76.6841C78.7959 75.5619 78.0478 74.8138 76.9256 74.8138Z" fill="#2C2C2C"/>
<path d="M24.5559 89.7766H17.0746C15.9524 89.7766 15.2042 90.5247 15.2042 91.6469C15.2042 92.7691 15.9524 93.5172 17.0746 93.5172H24.5559C25.6782 93.5172 26.4263 92.7691 26.4263 91.6469C26.4263 90.5247 25.6782 89.7766 24.5559 89.7766Z" fill="#2C2C2C"/>
<path d="M76.9255 89.7766H32.0372C30.915 89.7766 30.1669 90.5247 30.1669 91.6469C30.1669 92.7691 30.915 93.5172 32.0372 93.5172H76.9255C78.0477 93.5172 78.7958 92.7691 78.7958 91.6469C78.7958 90.5247 78.0477 89.7766 76.9255 89.7766Z" fill="#2C2C2C"/>
<path d="M17.0746 56.1104H32.0373C33.1595 56.1104 33.9077 55.3622 33.9077 54.24C33.9077 53.1178 33.1595 52.3697 32.0373 52.3697H17.0746C15.9524 52.3697 15.2042 53.1178 15.2042 54.24C15.2042 55.3622 15.9524 56.1104 17.0746 56.1104Z" fill="#2C2C2C"/>
<path d="M76.9254 52.3697H39.5185C38.3963 52.3697 37.6482 53.1178 37.6482 54.24C37.6482 55.3622 38.3963 56.1104 39.5185 56.1104H76.9254C78.0476 56.1104 78.7958 55.3622 78.7958 54.24C78.7958 53.1178 78.0476 52.3697 76.9254 52.3697Z" fill="#2C2C2C"/>
<path d="M17.0746 71.0731H61.9628C63.0851 71.0731 63.8332 70.3249 63.8332 69.2027C63.8332 68.0805 63.0851 67.3324 61.9628 67.3324H17.0746C15.9524 67.3324 15.2042 68.0805 15.2042 69.2027C15.2042 70.3249 15.9524 71.0731 17.0746 71.0731Z" fill="#2C2C2C"/>
<path d="M17.0746 86.0359H54.4815C55.6037 86.0359 56.3518 85.2877 56.3518 84.1655C56.3518 83.0433 55.6037 82.2952 54.4815 82.2952H17.0746C15.9524 82.2952 15.2042 83.0433 15.2042 84.1655C15.2042 85.2877 15.9524 86.0359 17.0746 86.0359Z" fill="#2C2C2C"/>
<path d="M76.9255 82.2952H61.9627C60.8405 82.2952 60.0923 83.0433 60.0923 84.1655C60.0923 85.2877 60.8405 86.0359 61.9627 86.0359H76.9255C78.0477 86.0359 78.7958 85.2877 78.7958 84.1655C78.7958 83.0433 78.0477 82.2952 76.9255 82.2952Z" fill="#2C2C2C"/>
</svg>
