<svg width="102" height="110" viewBox="0 0 102 110" fill="none" xmlns="http://www.w3.org/2000/svg">
<path d="M95.3657 29.3772L85.385 24.481V107.34L99.3203 37.6631C100.074 34.2734 98.3788 30.8837 95.3657 29.3772Z" fill="#FBBD02"/>
<path d="M96.119 20.1498L87.0799 15.6302C86.5149 11.1106 82.5603 7.53262 77.8524 7.53262H34.3515C33.41 3.20136 29.6437 0 25.1241 0H17.5915C13.0719 0 9.11726 3.38968 8.364 7.72094C4.03275 8.4742 0.643066 12.4288 0.643066 16.9484V99.8072C0.643066 105.08 4.78601 109.223 10.0588 109.223H77.8524C82.9369 109.223 87.2682 105.268 87.2682 100.184L101.204 30.5071C101.957 26.3642 99.8853 22.0329 96.119 20.1498ZM17.5915 3.76631H25.1241C27.5722 3.76631 29.6437 5.27283 30.3969 7.53262H12.3186C13.0719 5.27283 15.1434 3.76631 17.5915 3.76631ZM83.5019 99.8072C83.5019 103.009 81.0538 105.457 77.8524 105.457H57.1377V99.8072C57.1377 98.6773 56.3845 97.9241 55.2546 97.9241C54.1247 97.9241 53.3714 98.6773 53.3714 99.8072V105.457H49.6051V92.2746C49.6051 91.1447 48.8518 90.3914 47.7219 90.3914C46.5921 90.3914 45.8388 91.1447 45.8388 92.2746V105.457H42.0725V99.8072C42.0725 98.6773 41.3192 97.9241 40.1893 97.9241C39.0594 97.9241 38.3062 98.6773 38.3062 99.8072V105.457H19.4746V99.8072C19.4746 98.6773 18.7214 97.9241 17.5915 97.9241C16.4616 97.9241 15.7083 98.6773 15.7083 99.8072V105.457H10.0588C6.85748 105.457 4.40938 103.009 4.40938 99.8072V16.9484C4.40938 13.747 6.85748 11.2989 10.0588 11.2989H30.7735V47.0789C30.7735 50.2802 28.3254 52.7283 25.1241 52.7283C21.9227 52.7283 19.4746 50.2802 19.4746 47.0789V16.9484C19.4746 15.8185 18.7214 15.0652 17.5915 15.0652C16.4616 15.0652 15.7083 15.8185 15.7083 16.9484V47.0789C15.7083 52.3517 19.8512 56.4946 25.1241 56.4946C30.3969 56.4946 34.5399 52.3517 34.5399 47.0789V11.2989H77.8524C81.0538 11.2989 83.5019 13.747 83.5019 16.9484V99.8072ZM97.4372 29.7538L87.2682 80.7874V19.9614L94.4242 23.5394C96.684 24.6693 98.0022 27.3057 97.4372 29.7538Z" fill="#2C2C2C"/>
<path d="M70.3199 22.5978H47.722C46.5921 22.5978 45.8389 23.3511 45.8389 24.481C45.8389 25.6109 46.5921 26.3641 47.722 26.3641H70.3199C71.4498 26.3641 72.203 25.6109 72.203 24.481C72.203 23.3511 71.4498 22.5978 70.3199 22.5978Z" fill="#2C2C2C"/>
<path d="M70.3199 37.6631H47.722C46.5921 37.6631 45.8389 38.4163 45.8389 39.5462C45.8389 40.6761 46.5921 41.4294 47.722 41.4294H70.3199C71.4498 41.4294 72.203 40.6761 72.203 39.5462C72.203 38.4163 71.4498 37.6631 70.3199 37.6631Z" fill="#2C2C2C"/>
<path d="M47.722 56.4946H55.2546C56.3845 56.4946 57.1378 55.7414 57.1378 54.6115C57.1378 53.4816 56.3845 52.7283 55.2546 52.7283H47.722C46.5921 52.7283 45.8389 53.4816 45.8389 54.6115C45.8389 55.7414 46.5921 56.4946 47.722 56.4946Z" fill="#2C2C2C"/>
<path d="M70.3198 52.7283H62.7872C61.6573 52.7283 60.9041 53.4816 60.9041 54.6115C60.9041 55.7414 61.6573 56.4946 62.7872 56.4946H70.3198C71.4497 56.4946 72.203 55.7414 72.203 54.6115C72.203 53.4816 71.4497 52.7283 70.3198 52.7283Z" fill="#2C2C2C"/>
<path d="M40.1894 75.3262H17.5915C16.4616 75.3262 15.7084 76.0794 15.7084 77.2093C15.7084 78.3392 16.4616 79.0925 17.5915 79.0925H40.1894C41.3193 79.0925 42.0725 78.3392 42.0725 77.2093C42.0725 76.0794 41.3193 75.3262 40.1894 75.3262Z" fill="#2C2C2C"/>
<path d="M70.3199 75.3262H47.722C46.5921 75.3262 45.8389 76.0794 45.8389 77.2093C45.8389 78.3392 46.5921 79.0925 47.722 79.0925H70.3199C71.4498 79.0925 72.203 78.3392 72.203 77.2093C72.203 76.0794 71.4498 75.3262 70.3199 75.3262Z" fill="#2C2C2C"/>
<path d="M70.3199 45.1957H47.722C46.5921 45.1957 45.8389 45.949 45.8389 47.0789C45.8389 48.2088 46.5921 48.962 47.722 48.962H70.3199C71.4498 48.962 72.203 48.2088 72.203 47.0789C72.203 45.949 71.4498 45.1957 70.3199 45.1957Z" fill="#2C2C2C"/>
<path d="M57.1378 69.6767C57.1378 68.5468 56.3845 67.7936 55.2546 67.7936H17.5915C16.4616 67.7936 15.7084 68.5468 15.7084 69.6767C15.7084 70.8066 16.4616 71.5599 17.5915 71.5599H55.2546C56.3845 71.5599 57.1378 70.8066 57.1378 69.6767Z" fill="#2C2C2C"/>
<path d="M70.3198 67.7936H62.7872C61.6573 67.7936 60.9041 68.5468 60.9041 69.6767C60.9041 70.8066 61.6573 71.5599 62.7872 71.5599H70.3198C71.4497 71.5599 72.203 70.8066 72.203 69.6767C72.203 68.5468 71.4497 67.7936 70.3198 67.7936Z" fill="#2C2C2C"/>
<path d="M47.722 33.8968H55.2546C56.3845 33.8968 57.1378 33.1435 57.1378 32.0136C57.1378 30.8838 56.3845 30.1305 55.2546 30.1305H47.722C46.5921 30.1305 45.8389 30.8838 45.8389 32.0136C45.8389 33.1435 46.5921 33.8968 47.722 33.8968Z" fill="#2C2C2C"/>
<path d="M70.3198 30.1305H62.7872C61.6573 30.1305 60.9041 30.8838 60.9041 32.0136C60.9041 33.1435 61.6573 33.8968 62.7872 33.8968H70.3198C71.4497 33.8968 72.203 33.1435 72.203 32.0136C72.203 30.8838 71.4497 30.1305 70.3198 30.1305Z" fill="#2C2C2C"/>
<path d="M70.3199 60.2609H47.722C46.5921 60.2609 45.8389 61.0142 45.8389 62.1441C45.8389 63.274 46.5921 64.0272 47.722 64.0272H70.3199C71.4498 64.0272 72.203 63.274 72.203 62.1441C72.203 61.0142 71.4498 60.2609 70.3199 60.2609Z" fill="#2C2C2C"/>
</svg>
