<svg width="98" height="104" viewBox="0 0 98 104" fill="none" xmlns="http://www.w3.org/2000/svg">
<path d="M6.71697 103.702H15.0618C17.3566 103.702 19.2342 101.818 19.2342 99.5151V24.15C19.2342 21.8471 17.3566 19.963 15.0618 19.963H6.71697C4.42214 19.963 2.54456 21.8471 2.54456 24.15V99.5151C2.54456 101.818 4.42214 103.702 6.71697 103.702Z" fill="#D4452C"/>
<path d="M89.1725 33.5937H75.7817H53.6868C53.1847 33.5937 52.6825 33.2577 52.3477 32.9218C52.013 32.4179 52.013 31.914 52.1804 31.4101L55.3607 22.0038C56.6998 17.6367 57.3693 13.1015 57.3693 8.39841C57.3693 3.6953 53.6868 0 49 0C44.3133 0 40.6308 3.6953 40.6308 8.39841C40.6308 12.4297 39.4591 16.4609 37.1157 19.8203L35.7766 21.8359C31.0898 29.0585 24.5618 34.9374 17.1969 39.1366V31.914C17.1969 29.0585 15.0209 26.8749 12.1753 26.8749H5.47993C2.63438 26.8749 0.458374 29.0585 0.458374 31.914V92.3826C0.458374 95.238 2.63438 97.4216 5.47993 97.4216H12.1753C15.0209 97.4216 17.1969 95.238 17.1969 92.3826V84.9919L24.5618 88.6872C27.0726 90.031 29.9181 90.7029 32.7637 90.7029H55.6954H69.0863C73.773 90.7029 77.4555 87.0076 77.4555 82.3045C77.4555 80.4568 76.786 78.6092 75.7817 77.2654C80.4684 77.2654 84.1509 73.5701 84.1509 68.867C84.1509 67.0193 83.4814 65.1717 82.4771 63.8279C87.1638 63.8279 90.8463 60.1326 90.8463 55.4295C90.8463 53.5819 90.1768 51.7342 89.1725 50.3905C93.8592 50.3905 97.5417 46.6952 97.5417 41.9921C97.5417 37.289 93.8592 33.5937 89.1725 33.5937ZM75.7817 47.0311C72.9361 47.0311 70.7601 44.8475 70.7601 41.9921C70.7601 39.1366 72.9361 36.953 75.7817 36.953H77.4555V47.0311H75.7817ZM69.0863 60.4686C66.2407 60.4686 64.0647 58.285 64.0647 55.4295C64.0647 52.5741 66.2407 50.3905 69.0863 50.3905H70.7601V60.4686H69.0863ZM62.3909 73.906C59.5453 73.906 57.3693 71.7225 57.3693 68.867C57.3693 66.0115 59.5453 63.8279 62.3909 63.8279H64.0647V73.906H62.3909ZM55.6954 87.3435C52.8499 87.3435 50.6739 85.1599 50.6739 82.3045C50.6739 79.449 52.8499 77.2654 55.6954 77.2654H57.3693V87.3435H55.6954ZM47.3262 3.6953V8.39841C47.3262 11.7578 44.9828 12.9336 43.4763 13.2695C43.8111 11.5898 43.9785 10.0781 43.9785 8.39841C43.9785 6.21483 45.3176 4.36718 47.3262 3.6953ZM13.8492 92.3826C13.8492 93.3904 13.1796 94.0622 12.1753 94.0622H5.47993C4.47562 94.0622 3.80608 93.3904 3.80608 92.3826V31.914C3.80608 30.9062 4.47562 30.2343 5.47993 30.2343H12.1753C13.1796 30.2343 13.8492 30.9062 13.8492 31.914V92.3826ZM26.0683 85.6638L17.1969 81.2966V42.9999C25.7335 38.4647 33.2658 31.914 38.6222 23.6835L39.9613 21.6679C40.9656 20.1562 41.8025 18.4765 42.472 16.7968C45.3176 16.7968 50.6739 14.7812 50.6739 8.39841V3.6953C52.6825 4.36718 54.0216 6.21483 54.0216 8.39841C54.0216 12.5976 53.3521 16.9648 52.013 20.996L48.8327 30.4023C48.3305 31.914 48.4979 33.5937 49.5022 34.9374C50.5065 36.2811 52.013 36.953 53.5194 36.953H69.0863C68.0819 38.2968 67.4124 40.1444 67.4124 41.9921C67.4124 43.8397 68.0819 45.6874 69.0863 47.0311C64.3995 47.0311 60.717 50.7264 60.717 55.4295C60.717 57.2772 61.3865 59.1248 62.3909 60.4686C57.7041 60.4686 54.0216 64.1639 54.0216 68.867C54.0216 70.7146 54.6911 72.5623 55.6954 73.906C51.0087 73.906 47.3262 77.6013 47.3262 82.3045C47.3262 84.1521 47.9957 85.9998 49 87.3435H32.7637C30.5877 87.3435 28.2443 86.8396 26.0683 85.6638ZM74.1078 82.3045C74.1078 85.1599 71.9318 87.3435 69.0863 87.3435H60.717V77.2654H62.3909H69.0863C71.9318 77.2654 74.1078 79.449 74.1078 82.3045ZM80.8032 68.867C80.8032 71.7225 78.6272 73.906 75.7817 73.906H69.0863H67.4124V63.8279H69.0863H75.7817C78.6272 63.8279 80.8032 66.0115 80.8032 68.867ZM87.4986 55.4295C87.4986 58.285 85.3226 60.4686 82.4771 60.4686H75.7817H74.1078V50.3905H75.7817H82.4771C85.3226 50.3905 87.4986 52.5741 87.4986 55.4295ZM89.1725 47.0311H82.4771H80.8032V36.953H89.1725C92.018 36.953 94.194 39.1366 94.194 41.9921C94.194 44.8475 92.018 47.0311 89.1725 47.0311Z" fill="#2C2C2C"/>
<path d="M8.82754 90.7029C9.75198 90.7029 10.5014 89.9508 10.5014 89.0232C10.5014 88.0955 9.75198 87.3435 8.82754 87.3435C7.90309 87.3435 7.15369 88.0955 7.15369 89.0232C7.15369 89.9508 7.90309 90.7029 8.82754 90.7029Z" fill="#2C2C2C"/>
<path d="M49.0001 40.3124C47.9958 40.3124 47.3262 40.9843 47.3262 41.9921C47.3262 54.0858 37.6179 63.8279 25.5662 63.8279C24.5619 63.8279 23.8923 64.4998 23.8923 65.5076C23.8923 66.5154 24.5619 67.1873 25.5662 67.1873C39.4591 67.1873 50.6739 55.9334 50.6739 41.9921C50.6739 40.9843 50.0044 40.3124 49.0001 40.3124Z" fill="#2C2C2C"/>
<path d="M89.1725 38.6327C88.1682 38.6327 87.4987 39.3046 87.4987 40.3124V43.6717C87.4987 44.6795 88.1682 45.3514 89.1725 45.3514C90.1768 45.3514 90.8464 44.6795 90.8464 43.6717V40.3124C90.8464 39.3046 90.1768 38.6327 89.1725 38.6327Z" fill="#2C2C2C"/>
<path d="M82.4771 58.7889C83.4814 58.7889 84.1509 58.117 84.1509 57.1092V53.7498C84.1509 52.742 83.4814 52.0701 82.4771 52.0701C81.4728 52.0701 80.8032 52.742 80.8032 53.7498V57.1092C80.8032 58.117 81.4728 58.7889 82.4771 58.7889Z" fill="#2C2C2C"/>
<path d="M75.7816 72.2264C76.7859 72.2264 77.4555 71.5545 77.4555 70.5467V67.1873C77.4555 66.1795 76.7859 65.5076 75.7816 65.5076C74.7773 65.5076 74.1078 66.1795 74.1078 67.1873V70.5467C74.1078 71.5545 74.7773 72.2264 75.7816 72.2264Z" fill="#2C2C2C"/>
<path d="M69.0863 85.6638C70.0906 85.6638 70.7602 84.9919 70.7602 83.9841V80.6248C70.7602 79.6169 70.0906 78.9451 69.0863 78.9451C68.082 78.9451 67.4125 79.6169 67.4125 80.6248V83.9841C67.4125 84.9919 68.082 85.6638 69.0863 85.6638Z" fill="#2C2C2C"/>
</svg>
