<svg width="104" height="104" viewBox="0 0 104 104" fill="none" xmlns="http://www.w3.org/2000/svg">
<path d="M37.7665 44.7505C33.8285 44.7505 30.6064 47.9725 30.6064 51.9106V73.3908C30.6064 77.3288 33.8285 80.5508 37.7665 80.5508H66.4068C70.3448 80.5508 73.5669 77.3288 73.5669 73.3908V51.9106C73.5669 47.9725 70.3448 44.7505 66.4068 44.7505H37.7665Z" fill="#FBBD02"/>
<path d="M95.047 7.16007H82.5169V1.79002C82.5169 0.716007 81.8009 0 80.7269 0C79.6529 0 78.9369 0.716007 78.9369 1.79002V7.16007H25.2364V1.79002C25.2364 0.716007 24.5204 0 23.4463 0C22.3723 0 21.6563 0.716007 21.6563 1.79002V7.16007H9.1262C4.11416 7.16007 0.176117 11.0981 0.176117 16.1102V80.5508C0.176117 85.2048 3.75615 88.9639 8.2312 89.5009L20.0453 101.315C21.6563 102.926 23.9833 104 26.3104 104H77.6839C80.0109 104 82.3379 103.105 83.9489 101.315L88.961 96.3029L95.763 89.5009C100.238 89.1429 103.818 85.2048 103.818 80.5508V16.1102C103.997 11.0981 100.059 7.16007 95.047 7.16007ZM77.6839 100.241H26.4894C25.0574 100.241 23.6253 99.704 22.7303 98.6299L13.4222 89.5009H90.751L87.171 93.0809H23.4463C22.3723 93.0809 21.6563 93.7969 21.6563 94.8709C21.6563 95.9449 22.3723 96.6609 23.4463 96.6609H83.5909L81.6219 98.6299C80.5479 99.704 79.1159 100.241 77.6839 100.241ZM100.417 80.5508C100.417 83.5938 98.0901 85.9208 95.047 85.9208H9.1262C6.08317 85.9208 3.75615 83.5938 3.75615 80.5508V16.1102C3.75615 13.0671 6.08317 10.7401 9.1262 10.7401H21.6563V14.4991C17.5393 15.3941 14.4963 18.9742 14.4963 23.2702C14.4963 28.2823 18.4343 32.2203 23.4463 32.2203C28.4584 32.2203 32.3964 28.2823 32.3964 23.2702C32.3964 18.9742 29.3534 15.3941 25.2364 14.4991V10.7401H78.9369V14.4991C74.8198 15.3941 71.7768 18.9742 71.7768 23.2702C71.7768 28.2823 75.7149 32.2203 80.7269 32.2203C85.7389 32.2203 89.677 28.2823 89.677 23.2702C89.677 18.9742 86.634 15.3941 82.5169 14.4991V10.7401H95.047C98.0901 10.7401 100.417 13.0671 100.417 16.1102V80.5508ZM23.4463 25.0602C24.5204 25.0602 25.2364 24.3442 25.2364 23.2702V18.2582C27.3844 18.9742 28.8164 20.9432 28.8164 23.2702C28.8164 26.3133 26.4894 28.6403 23.4463 28.6403C20.4033 28.6403 18.0763 26.3133 18.0763 23.2702C18.0763 20.9432 19.5083 18.9742 21.6563 18.2582V23.2702C21.6563 24.3442 22.3723 25.0602 23.4463 25.0602ZM80.7269 25.0602C81.8009 25.0602 82.5169 24.3442 82.5169 23.2702V18.2582C84.6649 18.9742 86.097 20.9432 86.097 23.2702C86.097 26.3133 83.7699 28.6403 80.7269 28.6403C77.6839 28.6403 75.3568 26.3133 75.3568 23.2702C75.3568 20.9432 76.7889 18.9742 78.9369 18.2582V23.2702C78.9369 24.3442 79.6529 25.0602 80.7269 25.0602Z" fill="#2C2C2C"/>
<path d="M66.4068 35.8003H37.7666C32.7545 35.8003 28.8165 39.7383 28.8165 44.7504V66.2306C28.8165 71.2426 32.7545 75.1807 37.7666 75.1807H66.4068C71.4189 75.1807 75.3569 71.2426 75.3569 66.2306V44.7504C75.3569 39.7383 71.4189 35.8003 66.4068 35.8003ZM71.7769 66.2306C71.7769 69.2736 69.4499 71.6006 66.4068 71.6006H37.7666C34.7235 71.6006 32.3965 69.2736 32.3965 66.2306V44.7504C32.3965 41.7073 34.7235 39.3803 37.7666 39.3803H66.4068C69.4499 39.3803 71.7769 41.7073 71.7769 44.7504V66.2306Z" fill="#2C2C2C"/>
<path d="M95.047 71.6006H80.7268C79.6528 71.6006 78.9368 72.3166 78.9368 73.3906C78.9368 74.4646 79.6528 75.1806 80.7268 75.1806H95.047C96.121 75.1806 96.837 74.4646 96.837 73.3906C96.837 72.3166 96.121 71.6006 95.047 71.6006Z" fill="#2C2C2C"/>
<path d="M80.7268 68.0207H87.8869C88.9609 68.0207 89.6769 67.3047 89.6769 66.2307C89.6769 65.1567 88.9609 64.4407 87.8869 64.4407H80.7268C79.6528 64.4407 78.9368 65.1567 78.9368 66.2307C78.9368 67.3047 79.6528 68.0207 80.7268 68.0207Z" fill="#2C2C2C"/>
<path d="M95.047 57.2805H80.7268C79.6528 57.2805 78.9368 57.9965 78.9368 59.0705C78.9368 60.1445 79.6528 60.8605 80.7268 60.8605H95.047C96.121 60.8605 96.837 60.1445 96.837 59.0705C96.837 57.9965 96.121 57.2805 95.047 57.2805Z" fill="#2C2C2C"/>
<path d="M80.7268 53.7004H87.8869C88.9609 53.7004 89.6769 52.9844 89.6769 51.9104C89.6769 50.8364 88.9609 50.1204 87.8869 50.1204H80.7268C79.6528 50.1204 78.9368 50.8364 78.9368 51.9104C78.9368 52.9844 79.6528 53.7004 80.7268 53.7004Z" fill="#2C2C2C"/>
<path d="M23.4464 50.1204H16.2863C15.2123 50.1204 14.4963 50.8364 14.4963 51.9104C14.4963 52.9844 15.2123 53.7004 16.2863 53.7004H23.4464C24.5204 53.7004 25.2364 52.9844 25.2364 51.9104C25.2364 50.8364 24.5204 50.1204 23.4464 50.1204Z" fill="#2C2C2C"/>
<path d="M9.12617 60.8605H16.2862C17.3603 60.8605 18.0763 60.1445 18.0763 59.0705C18.0763 57.9965 17.3603 57.2805 16.2862 57.2805H9.12617C8.05216 57.2805 7.33615 57.9965 7.33615 59.0705C7.33615 60.1445 8.05216 60.8605 9.12617 60.8605Z" fill="#2C2C2C"/>
<path d="M23.4463 64.4407H9.12617C8.05216 64.4407 7.33615 65.1567 7.33615 66.2307C7.33615 67.3047 8.05216 68.0207 9.12617 68.0207H23.4463C24.5203 68.0207 25.2363 67.3047 25.2363 66.2307C25.2363 65.1567 24.5203 64.4407 23.4463 64.4407Z" fill="#2C2C2C"/>
<path d="M23.4464 71.6006H16.2863C15.2123 71.6006 14.4963 72.3166 14.4963 73.3906C14.4963 74.4646 15.2123 75.1806 16.2863 75.1806H23.4464C24.5204 75.1806 25.2364 74.4646 25.2364 73.3906C25.2364 72.3166 24.5204 71.6006 23.4464 71.6006Z" fill="#2C2C2C"/>
</svg>
