<svg width="102" height="80" viewBox="0 0 102 80" fill="none" xmlns="http://www.w3.org/2000/svg">
<path d="M93.2068 22.8621H8.79303C4.92406 22.8621 1.75854 26.0276 1.75854 29.8965V72.1034C1.75854 75.9724 4.92406 79.1379 8.79303 79.1379H93.2068C97.0758 79.1379 100.241 75.9724 100.241 72.1034V29.8965C100.241 26.0276 97.0758 22.8621 93.2068 22.8621ZM50.9999 72.1034C39.393 72.1034 29.8965 62.6069 29.8965 51C29.8965 39.3931 39.393 29.8965 50.9999 29.8965C62.6068 29.8965 72.1034 39.3931 72.1034 51C72.1034 62.6069 62.6068 72.1034 50.9999 72.1034Z" fill="#FBBD02"/>
<path d="M93.2069 14.0688H8.7931C3.86897 14.0688 0 17.9378 0 22.862V65.0688C0 69.993 3.86897 73.862 8.7931 73.862H93.2069C98.131 73.862 102 69.993 102 65.0688V22.862C102 17.9378 98.131 14.0688 93.2069 14.0688ZM98.4828 65.0688C98.4828 68.0585 96.1966 70.3447 93.2069 70.3447H8.7931C5.80345 70.3447 3.51724 68.0585 3.51724 65.0688V22.862C3.51724 19.8723 5.80345 17.5861 8.7931 17.5861H93.2069C96.1966 17.5861 98.4828 19.8723 98.4828 22.862V65.0688Z" fill="#2C2C2C"/>
<path d="M7.03455 8.79304C7.03455 9.84822 7.73799 10.5517 8.79317 10.5517H93.207C94.2621 10.5517 94.9656 9.84822 94.9656 8.79304C94.9656 7.73787 94.2621 7.03442 93.207 7.03442H8.79317C7.73799 7.03442 7.03455 7.73787 7.03455 8.79304Z" fill="#2C2C2C"/>
<path d="M86.1724 0H15.8276C14.7724 0 14.069 0.703448 14.069 1.75862C14.069 2.81379 14.7724 3.51724 15.8276 3.51724H86.1724C87.2276 3.51724 87.931 2.81379 87.931 1.75862C87.931 0.703448 87.2276 0 86.1724 0Z" fill="#2C2C2C"/>
<path d="M51 21.1035C38.3379 21.1035 28.1379 31.3035 28.1379 43.9656C28.1379 56.6277 38.3379 66.8277 51 66.8277C63.6621 66.8277 73.8621 56.6277 73.8621 43.9656C73.8621 31.3035 63.6621 21.1035 51 21.1035ZM51 63.3104C40.2724 63.3104 31.6552 54.6932 31.6552 43.9656C31.6552 33.238 40.2724 24.6208 51 24.6208C61.7276 24.6208 70.3448 33.238 70.3448 43.9656C70.3448 54.6932 61.7276 63.3104 51 63.3104Z" fill="#2C2C2C"/>
<path d="M47.4828 38.6897H58.0345C59.0897 38.6897 59.7931 37.9862 59.7931 36.931C59.7931 35.8759 59.0897 35.1724 58.0345 35.1724H52.7586V29.8966C52.7586 28.8414 52.0552 28.1379 51 28.1379C49.9448 28.1379 49.2414 28.8414 49.2414 29.8966V35.1724H47.4828C44.4931 35.1724 42.2069 37.4586 42.2069 40.4483C42.2069 43.4379 44.4931 45.7241 47.4828 45.7241H54.5173C55.5724 45.7241 56.2759 46.4276 56.2759 47.4828C56.2759 48.5379 55.5724 49.2414 54.5173 49.2414H43.9655C42.9104 49.2414 42.2069 49.9448 42.2069 51C42.2069 52.0552 42.9104 52.7586 43.9655 52.7586H49.2414V58.0345C49.2414 59.0897 49.9448 59.7931 51 59.7931C52.0552 59.7931 52.7586 59.0897 52.7586 58.0345V52.7586H54.5173C57.5069 52.7586 59.7931 50.4724 59.7931 47.4828C59.7931 44.4931 57.5069 42.2069 54.5173 42.2069H47.4828C46.4276 42.2069 45.7242 41.5035 45.7242 40.4483C45.7242 39.3931 46.4276 38.6897 47.4828 38.6897Z" fill="#2C2C2C"/>
<path d="M79.138 38.6896H86.1725C87.2277 38.6896 87.9311 37.9862 87.9311 36.931C87.9311 35.8758 87.2277 35.1724 86.1725 35.1724H79.138C78.0828 35.1724 77.3794 35.8758 77.3794 36.931C77.3794 37.9862 78.0828 38.6896 79.138 38.6896Z" fill="#2C2C2C"/>
<path d="M93.207 42.2068H79.138C78.0828 42.2068 77.3794 42.9102 77.3794 43.9654C77.3794 45.0206 78.0828 45.724 79.138 45.724H93.207C94.2622 45.724 94.9656 45.0206 94.9656 43.9654C94.9656 42.9102 94.2622 42.2068 93.207 42.2068Z" fill="#2C2C2C"/>
<path d="M86.1725 52.7587C87.2277 52.7587 87.9311 52.0553 87.9311 51.0001C87.9311 49.9449 87.2277 49.2415 86.1725 49.2415H79.138C78.0828 49.2415 77.3794 49.9449 77.3794 51.0001C77.3794 52.0553 78.0828 52.7587 79.138 52.7587H86.1725Z" fill="#2C2C2C"/>
<path d="M15.8276 35.1724C14.7724 35.1724 14.069 35.8758 14.069 36.931C14.069 37.9862 14.7724 38.6896 15.8276 38.6896H22.8621C23.9172 38.6896 24.6207 37.9862 24.6207 36.931C24.6207 35.8758 23.9172 35.1724 22.8621 35.1724H15.8276Z" fill="#2C2C2C"/>
<path d="M8.79317 45.724H22.8621C23.9173 45.724 24.6208 45.0206 24.6208 43.9654C24.6208 42.9102 23.9173 42.2068 22.8621 42.2068H8.79317C7.73799 42.2068 7.03455 42.9102 7.03455 43.9654C7.03455 45.0206 7.73799 45.724 8.79317 45.724Z" fill="#2C2C2C"/>
<path d="M22.8621 49.2415H15.8276C14.7724 49.2415 14.069 49.9449 14.069 51.0001C14.069 52.0553 14.7724 52.7587 15.8276 52.7587H22.8621C23.9172 52.7587 24.6207 52.0553 24.6207 51.0001C24.6207 49.9449 23.9172 49.2415 22.8621 49.2415Z" fill="#2C2C2C"/>
<path d="M29.8966 63.3103H8.79317C7.73799 63.3103 7.03455 64.0138 7.03455 65.0689C7.03455 66.1241 7.73799 66.8275 8.79317 66.8275H29.8966C30.9518 66.8275 31.6552 66.1241 31.6552 65.0689C31.6552 64.0138 30.9518 63.3103 29.8966 63.3103Z" fill="#2C2C2C"/>
<path d="M93.2069 63.3103H72.1035C71.0483 63.3103 70.3448 64.0138 70.3448 65.0689C70.3448 66.1241 71.0483 66.8275 72.1035 66.8275H93.2069C94.2621 66.8275 94.9655 66.1241 94.9655 65.0689C94.9655 64.0138 94.2621 63.3103 93.2069 63.3103Z" fill="#2C2C2C"/>
<path d="M8.79317 24.6208H29.8966C30.9518 24.6208 31.6552 23.9173 31.6552 22.8621C31.6552 21.807 30.9518 21.1035 29.8966 21.1035H8.79317C7.73799 21.1035 7.03455 21.807 7.03455 22.8621C7.03455 23.9173 7.73799 24.6208 8.79317 24.6208Z" fill="#2C2C2C"/>
<path d="M93.2069 21.1035H72.1035C71.0483 21.1035 70.3448 21.807 70.3448 22.8621C70.3448 23.9173 71.0483 24.6208 72.1035 24.6208H93.2069C94.2621 24.6208 94.9655 23.9173 94.9655 22.8621C94.9655 21.807 94.2621 21.1035 93.2069 21.1035Z" fill="#2C2C2C"/>
</svg>
