<svg width="97" height="97" viewBox="0 0 97 97" fill="none" xmlns="http://www.w3.org/2000/svg">
<path d="M86.664 7.95093H10.3361C6.83776 7.95093 3.97546 10.8132 3.97546 14.3116V90.6395C3.97546 94.1378 6.83776 97.0001 10.3361 97.0001H86.664C90.1623 97.0001 93.0246 94.1378 93.0246 90.6395V14.3116C93.0246 10.8132 90.1623 7.95093 86.664 7.95093ZM86.664 87.4591C86.664 89.2083 85.2328 90.6395 83.4837 90.6395H13.5164C11.7673 90.6395 10.3361 89.2083 10.3361 87.4591V17.4919C10.3361 15.7427 11.7673 14.3116 13.5164 14.3116H83.4837C85.2328 14.3116 86.664 15.7427 86.664 17.4919V87.4591Z" fill="#D4452C"/>
<path d="M86.6639 0H10.3361C5.88362 0 2.38525 3.49836 2.38525 7.95082V84.2787C2.38525 88.7311 5.88362 92.2295 10.3361 92.2295H86.6639C91.1164 92.2295 94.6148 88.7311 94.6148 84.2787V7.95082C94.6148 3.49836 91.1164 0 86.6639 0ZM91.4344 84.2787C91.4344 86.982 89.3672 89.0492 86.6639 89.0492H10.3361C7.6328 89.0492 5.56558 86.982 5.56558 84.2787V7.95082C5.56558 5.24754 7.6328 3.18033 10.3361 3.18033H86.6639C89.3672 3.18033 91.4344 5.24754 91.4344 7.95082V84.2787Z" fill="#2C2C2C"/>
<path d="M68.6951 25.9197C68.059 25.2836 67.1049 25.2836 66.4689 25.9197L52.9525 39.4361C51.6803 38.641 50.0902 38.1639 48.5 38.1639C44.0476 38.1639 40.5492 41.6623 40.5492 46.1148C40.5492 49.9312 43.2525 53.1115 46.9098 53.9066V58.8361C46.9098 59.7902 47.5459 60.4262 48.5 60.4262C49.4541 60.4262 50.0902 59.7902 50.0902 58.8361V53.9066C53.7476 53.1115 56.4508 49.9312 56.4508 46.1148C56.4508 44.5246 55.9738 42.9344 55.1787 41.6623L68.6951 28.1459C69.3312 27.5098 69.3312 26.5557 68.6951 25.9197ZM43.7295 46.1148C43.7295 43.4115 45.7967 41.3443 48.5 41.3443C49.2951 41.3443 49.9312 41.5033 50.5672 41.8213L47.3869 45.0016C47.0689 45.3197 46.9098 45.6377 46.9098 46.1148V50.5672C45.0017 49.9312 43.7295 48.182 43.7295 46.1148ZM53.2705 46.1148C53.2705 48.182 51.9984 49.9312 50.0902 50.5672V46.7508L52.7935 44.0475C53.1115 44.6836 53.2705 45.3197 53.2705 46.1148Z" fill="#2C2C2C"/>
<path d="M18.2869 19.0818C20.0433 19.0818 21.4672 17.658 21.4672 15.9015C21.4672 14.1451 20.0433 12.7212 18.2869 12.7212C16.5304 12.7212 15.1066 14.1451 15.1066 15.9015C15.1066 17.658 16.5304 19.0818 18.2869 19.0818Z" fill="#2C2C2C"/>
<path d="M48.5 19.0818C50.2565 19.0818 51.6804 17.658 51.6804 15.9015C51.6804 14.1451 50.2565 12.7212 48.5 12.7212C46.7436 12.7212 45.3197 14.1451 45.3197 15.9015C45.3197 17.658 46.7436 19.0818 48.5 19.0818Z" fill="#2C2C2C"/>
<path d="M78.713 19.0818C80.4695 19.0818 81.8934 17.658 81.8934 15.9015C81.8934 14.1451 80.4695 12.7212 78.713 12.7212C76.9566 12.7212 75.5327 14.1451 75.5327 15.9015C75.5327 17.658 76.9566 19.0818 78.713 19.0818Z" fill="#2C2C2C"/>
<path d="M18.2869 79.5081C20.0433 79.5081 21.4672 78.0842 21.4672 76.3278C21.4672 74.5713 20.0433 73.1475 18.2869 73.1475C16.5304 73.1475 15.1066 74.5713 15.1066 76.3278C15.1066 78.0842 16.5304 79.5081 18.2869 79.5081Z" fill="#2C2C2C"/>
<path d="M48.5 79.5081C50.2565 79.5081 51.6804 78.0842 51.6804 76.3278C51.6804 74.5713 50.2565 73.1475 48.5 73.1475C46.7436 73.1475 45.3197 74.5713 45.3197 76.3278C45.3197 78.0842 46.7436 79.5081 48.5 79.5081Z" fill="#2C2C2C"/>
<path d="M78.713 79.5081C80.4695 79.5081 81.8934 78.0842 81.8934 76.3278C81.8934 74.5713 80.4695 73.1475 78.713 73.1475C76.9566 73.1475 75.5327 74.5713 75.5327 76.3278C75.5327 78.0842 76.9566 79.5081 78.713 79.5081Z" fill="#2C2C2C"/>
<path d="M78.713 49.295C80.4695 49.295 81.8934 47.8711 81.8934 46.1147C81.8934 44.3582 80.4695 42.9343 78.713 42.9343C76.9566 42.9343 75.5327 44.3582 75.5327 46.1147C75.5327 47.8711 76.9566 49.295 78.713 49.295Z" fill="#2C2C2C"/>
<path d="M18.2869 49.295C20.0433 49.295 21.4672 47.8711 21.4672 46.1147C21.4672 44.3582 20.0433 42.9343 18.2869 42.9343C16.5304 42.9343 15.1066 44.3582 15.1066 46.1147C15.1066 47.8711 16.5304 49.295 18.2869 49.295Z" fill="#2C2C2C"/>
<path d="M36.8917 57.7229C36.2557 57.0868 35.3016 57.0868 34.6655 57.7229L21.9442 70.4442C21.3081 71.0803 21.3081 72.0344 21.9442 72.6704C22.2622 72.9885 22.7393 73.1475 23.0573 73.1475C23.3754 73.1475 23.8524 72.9885 24.1704 72.6704L36.8917 59.9491C37.5278 59.3131 37.5278 58.359 36.8917 57.7229Z" fill="#2C2C2C"/>
<path d="M34.6656 64.0837L28.3049 70.4444C27.6689 71.0805 27.6689 72.0346 28.3049 72.6706C28.623 72.9887 29.1 73.1477 29.418 73.1477C29.7361 73.1477 30.2131 72.9887 30.5312 72.6706L36.8918 66.31C37.5279 65.6739 37.5279 64.7198 36.8918 64.0837C36.2557 63.4477 35.3016 63.4477 34.6656 64.0837Z" fill="#2C2C2C"/>
<path d="M21.9442 66.3098C22.2622 66.6278 22.7393 66.7868 23.0573 66.7868C23.3754 66.7868 23.8524 66.6278 24.1704 66.3098L30.5311 59.9491C31.1672 59.3131 31.1672 58.359 30.5311 57.7229C29.895 57.0868 28.9409 57.0868 28.3049 57.7229L21.9442 64.0836C21.3081 64.7196 21.3081 65.6737 21.9442 66.3098Z" fill="#2C2C2C"/>
<path d="M10.3361 54.0655C11.2902 54.0655 11.9263 53.4295 11.9263 52.4754V11.1311C11.9263 10.177 12.5624 9.54092 13.5165 9.54092H61.2214C62.1755 9.54092 62.8115 8.90486 62.8115 7.95076C62.8115 6.99666 62.1755 6.3606 61.2214 6.3606H13.5165C10.8132 6.3606 8.74597 8.42781 8.74597 11.1311V52.4754C8.74597 53.4295 9.38204 54.0655 10.3361 54.0655Z" fill="#2C2C2C"/>
<path d="M83.4837 6.3606H67.582C66.6279 6.3606 65.9919 6.99666 65.9919 7.95076C65.9919 8.90486 66.6279 9.54092 67.582 9.54092H83.4837C84.4378 9.54092 85.0739 10.177 85.0739 11.1311V81.0983C85.0739 82.0524 84.4378 82.6885 83.4837 82.6885H13.5165C12.5624 82.6885 11.9263 82.0524 11.9263 81.0983V58.836C11.9263 57.8819 11.2902 57.2458 10.3361 57.2458C9.38204 57.2458 8.74597 57.8819 8.74597 58.836V81.0983C8.74597 83.8016 10.8132 85.8688 13.5165 85.8688H83.4837C86.187 85.8688 88.2542 83.8016 88.2542 81.0983V11.1311C88.2542 8.42781 86.187 6.3606 83.4837 6.3606Z" fill="#2C2C2C"/>
<path d="M40.5492 27.0328C40.5492 27.9869 41.1853 28.623 42.1394 28.623H54.8607C55.8148 28.623 56.4508 27.9869 56.4508 27.0328C56.4508 26.0787 55.8148 25.4426 54.8607 25.4426H42.1394C41.1853 25.4426 40.5492 26.0787 40.5492 27.0328Z" fill="#2C2C2C"/>
</svg>
